<?xml version="1.0" standalone="no"?>
<!DOCTYPE svg PUBLIC "-//W3C//DTD SVG 20010904//EN"
 "http://www.w3.org/TR/2001/REC-SVG-20010904/DTD/svg10.dtd">
<svg version="1.0" xmlns="http://www.w3.org/2000/svg"
 width="300.000000pt" height="300.000000pt" viewBox="0 0 300.000000 300.000000"
 preserveAspectRatio="xMidYMid meet">
<metadata>
Created by potrace 1.10, written by Peter Selinger 2001-2011
</metadata>
<g transform="translate(0.000000,300.000000) scale(0.100000,-0.100000)"
fill="#000000" stroke="none">
<path d="M1618 2734 c-37 -19 -35 -26 5 -23 44 3 105 -10 147 -32 72 -37 135
-56 155 -48 17 6 17 8 3 8 -10 1 -18 6 -18 11 0 14 11 12 31 -6 12 -10 39 -17
72 -19 29 -1 60 -5 68 -9 7 -4 3 2 -11 13 -14 12 -43 26 -65 33 -22 6 -65 19
-96 29 -31 10 -90 23 -130 29 -41 6 -82 16 -91 21 -24 12 -38 11 -70 -7z m227
-44 c17 -7 16 -9 -10 -9 -16 0 -39 4 -50 9 -17 7 -16 9 10 9 17 0 39 -4 50 -9z"/>
<path d="M1475 2684 c-13 -10 -32 -14 -55 -11 -19 3 -44 2 -55 -3 -17 -6 -14
-10 28 -31 26 -13 47 -27 47 -31 0 -12 -28 -10 -35 2 -3 6 -20 17 -36 25 -26
14 -34 14 -77 0 -109 -36 -118 -45 -106 -92 8 -29 24 -30 24 -2 0 14 5 19 14
16 8 -3 17 -1 20 6 3 9 5 9 5 0 1 -7 5 -13 10 -13 5 0 7 9 4 20 -3 11 -10 17
-17 13 -6 -3 -7 -2 -3 3 5 5 12 9 15 9 4 0 13 4 20 9 9 5 15 1 19 -13 4 -17 8
-19 19 -10 10 8 21 6 44 -7 16 -10 30 -22 30 -26 0 -4 10 -8 23 -8 22 1 22 1
-5 24 -15 13 -37 31 -49 40 -13 8 -20 18 -16 22 7 7 107 -54 107 -65 0 -4 30
1 68 10 37 10 96 19 132 20 36 1 52 4 35 6 -31 5 -61 23 -34 22 45 -1 174 -37
172 -47 -2 -6 14 -14 35 -18 20 -3 48 -13 61 -21 13 -8 20 -10 17 -4 -16 26
35 0 139 -70 90 -60 127 -103 160 -188 15 -36 37 -89 51 -116 13 -28 24 -59
24 -70 -1 -19 -1 -19 -15 -2 -7 11 -32 63 -55 117 -35 84 -51 107 -104 158
-57 55 -92 77 -156 97 -41 13 -11 -14 45 -41 78 -36 156 -119 175 -183 5 -17
7 -31 5 -31 -2 0 -15 20 -29 44 -27 46 -153 169 -166 161 -3 -2 -31 14 -61 36
-68 52 -129 83 -196 100 -29 7 -53 17 -53 22 0 15 -124 0 -205 -24 -44 -13
-76 -29 -84 -41 -16 -26 -8 -33 21 -16 28 16 235 16 264 0 14 -8 -7 -10 -86
-7 -58 1 -116 -1 -130 -5 l-25 -8 28 -1 c16 -1 38 -6 49 -12 16 -8 19 -8 13 1
-6 9 10 11 66 7 100 -6 179 -46 244 -122 26 -30 53 -54 60 -53 18 4 85 -61
128 -124 21 -31 45 -59 54 -62 13 -5 13 -2 -2 21 -10 16 -29 40 -43 56 -30 32
-22 35 23 7 37 -23 69 -89 81 -165 4 -27 20 -79 36 -114 19 -42 25 -68 19 -74
-7 -7 -14 0 -22 19 -6 16 -22 49 -34 74 -13 25 -28 63 -34 86 -6 22 -26 56
-43 75 -18 19 -46 51 -63 70 -16 20 -27 30 -23 24 4 -7 5 -15 2 -18 -7 -7 34
-65 68 -97 23 -21 42 -100 24 -100 -6 0 -37 28 -69 63 l-59 62 16 -40 c9 -22
35 -57 59 -78 23 -20 51 -46 63 -57 12 -11 27 -20 33 -20 7 0 10 -4 7 -9 -4
-5 -3 -17 0 -26 6 -13 9 -14 16 -3 7 10 11 9 23 -6 8 -11 15 -26 15 -33 0 -7
5 -13 10 -13 6 0 10 -7 10 -15 0 -8 -4 -15 -10 -15 -5 0 -29 -18 -52 -41 -23
-22 -44 -36 -46 -30 -2 6 13 27 33 47 41 39 41 51 1 33 -30 -14 -34 -12 -45
28 -8 28 -7 29 15 25 36 -7 22 14 -56 83 -37 33 -80 79 -95 102 -15 23 -33 44
-41 47 -8 3 -14 11 -14 17 0 26 -56 133 -83 161 -21 20 -27 32 -19 40 12 12
32 2 32 -16 0 -8 11 -13 25 -13 31 0 24 13 -43 84 -56 60 -130 98 -207 106
-41 5 -45 4 -22 -5 15 -5 27 -14 27 -19 0 -5 6 -9 13 -9 7 0 31 -13 53 -30 21
-16 44 -30 51 -30 18 0 53 -50 53 -74 -1 -19 -2 -19 -21 7 -12 15 -52 48 -89
72 -38 25 -71 49 -75 54 -3 5 -31 15 -63 21 -31 6 -67 16 -78 22 -15 7 -28 7
-39 0 -16 -8 -13 -11 18 -23 21 -7 37 -16 37 -20 0 -8 -48 3 -98 21 -18 7 -47
10 -63 6 -33 -6 -62 -30 -51 -40 3 -4 -1 -4 -11 0 -9 3 -17 2 -17 -4 0 -20 32
-22 48 -2 11 13 32 21 61 22 52 3 67 -17 24 -32 -51 -18 -75 -36 -97 -76 -13
-21 -27 -38 -33 -37 -6 1 -9 -6 -6 -16 3 -11 -2 -21 -11 -24 -9 -4 -16 -13
-16 -22 0 -24 14 -18 33 15 25 41 44 39 39 -4 -2 -21 -20 -53 -48 -87 -25 -30
-50 -71 -56 -92 -15 -50 -35 -67 -42 -35 -11 53 -16 187 -7 192 5 4 11 1 13
-5 2 -7 16 -1 33 15 l30 27 -27 -17 c-43 -25 -33 -4 22 50 28 27 48 52 44 55
-3 3 -14 -5 -25 -18 -14 -17 -31 -24 -66 -27 -38 -2 -43 0 -32 10 8 7 27 18
43 24 24 11 28 11 23 -3 -4 -8 -4 -15 -1 -15 8 0 75 73 70 77 -2 2 -25 -10
-52 -26 -46 -30 -79 -34 -40 -5 14 10 15 14 5 14 -17 -1 -58 -30 -40 -30 7 0
9 -4 6 -10 -3 -5 -12 -10 -19 -10 -18 0 -17 97 1 104 7 3 13 11 13 18 0 7 9
19 20 26 11 7 20 19 20 27 0 8 5 15 11 15 7 0 9 10 4 28 -11 44 -23 47 -38 11
-8 -19 -25 -47 -39 -64 -14 -16 -30 -40 -37 -52 -13 -26 -14 -106 -1 -151 5
-19 12 -84 16 -145 6 -87 12 -122 31 -158 12 -26 23 -55 23 -64 0 -10 -19 -35
-42 -57 -28 -25 -38 -41 -30 -44 6 -3 10 -10 7 -15 -7 -11 12 -49 25 -49 6 0
5 10 -1 24 -8 18 -8 29 2 47 13 24 13 23 20 -15 3 -21 4 -58 1 -82 l-5 -44
-18 22 c-11 11 -19 25 -19 30 0 6 -9 21 -20 35 -28 36 -26 95 5 141 27 39 35
107 13 100 -27 -9 -68 -101 -68 -153 0 -77 57 -241 77 -221 3 3 -4 17 -16 32
-11 14 -18 30 -15 35 7 12 24 1 24 -16 0 -7 10 -15 23 -17 17 -2 21 -9 19 -28
-1 -13 1 -31 4 -40 4 -8 8 -38 9 -66 2 -30 12 -68 26 -95 21 -38 24 -57 23
-146 l-1 -102 -71 -143 c-68 -138 -104 -245 -118 -350 l-7 -50 -53 7 c-61 7
-81 1 -63 -21 16 -20 6 -27 -16 -10 -17 12 -17 18 -6 77 20 100 48 164 117
264 68 101 81 128 37 80 -16 -17 -42 -41 -60 -55 -30 -24 -113 -173 -128 -230
-3 -14 -10 -34 -15 -45 -19 -44 -51 -142 -49 -151 1 -5 -1 -20 -4 -34 -12 -43
-24 -150 -17 -150 5 0 13 29 34 125 14 64 25 97 37 111 24 29 29 -9 8 -71 -11
-33 -22 -96 -24 -140 -2 -44 -2 -69 1 -55 25 134 58 250 70 250 11 0 14 -11
12 -40 -1 -22 1 -43 5 -46 7 -7 9 9 12 66 0 19 7 26 27 28 22 3 28 -2 37 -30
16 -49 95 -121 172 -157 37 -17 72 -37 79 -45 6 -9 13 -38 15 -66 2 -43 -1
-53 -21 -69 -25 -19 -24 -47 3 -86 17 -26 17 -66 -2 -91 -24 -31 -18 -44 20
-44 l35 0 0 180 c0 99 3 180 8 180 17 -1 43 -30 37 -41 -5 -6 -8 -50 -9 -97
-1 -47 0 -78 2 -69 5 23 19 21 32 -2 11 -22 14 -114 3 -125 -4 -4 -15 3 -25
16 l-18 23 0 -30 c0 -28 2 -30 44 -33 48 -2 65 10 46 33 -6 7 -14 37 -16 66
-4 36 -13 62 -30 82 -13 15 -24 37 -24 48 0 16 3 17 24 7 14 -6 31 -8 39 -5
22 8 46 63 40 88 -4 13 0 26 9 33 19 14 57 73 41 63 -20 -13 -15 0 11 28 20
22 23 33 19 63 -6 35 -5 36 12 22 17 -14 18 -13 12 4 -6 14 8 34 59 84 37 36
83 91 102 121 19 31 62 94 95 140 73 102 127 206 127 246 0 38 -13 23 -33 -37
-24 -72 -90 -163 -136 -188 -12 -6 -28 -26 -36 -45 -7 -19 -20 -35 -28 -35 -7
0 -23 -11 -35 -24 -17 -20 -29 -24 -61 -22 -23 2 -41 -1 -41 -6 0 -5 -5 -6
-11 -3 -6 4 -13 -2 -16 -14 -3 -12 -9 -21 -14 -21 -5 0 -6 -7 -2 -15 3 -10 0
-15 -8 -13 -10 2 -15 -9 -17 -34 -3 -32 0 -38 16 -38 26 0 46 25 39 51 -4 13
2 32 14 48 17 23 25 26 64 23 26 -2 45 -9 45 -16 0 -6 -22 -35 -49 -65 -114
-125 -122 -135 -117 -155 4 -15 -11 -36 -54 -79 -33 -32 -60 -63 -60 -68 0
-20 -54 -7 -154 38 -58 27 -106 53 -106 60 0 6 13 40 28 76 32 76 41 76 92 1
17 -24 39 -52 49 -62 10 -9 28 -32 40 -50 12 -17 26 -32 31 -32 17 0 -9 52
-50 100 -22 26 -40 50 -40 54 0 3 -15 20 -33 39 -21 20 -38 51 -45 80 -14 55
-32 62 -32 12 0 -19 -9 -58 -19 -87 -11 -29 -25 -72 -31 -95 -12 -47 -35 -60
-28 -16 3 16 8 37 12 48 6 17 5 17 -10 -3 -9 -12 -22 -22 -29 -22 -19 0 -45
46 -45 80 l0 31 25 -18 c16 -12 25 -28 25 -48 l1 -30 15 28 c8 15 19 27 23 27
11 0 41 86 40 114 0 12 -9 -8 -20 -42 -24 -76 -37 -76 -16 0 26 94 29 125 12
164 -11 28 -12 40 -4 50 19 23 31 16 24 -15 -3 -16 -2 -32 3 -35 5 -3 13 -22
16 -41 8 -38 25 -46 33 -15 3 11 10 20 17 21 6 1 0 4 -14 8 -24 7 -25 10 -24
92 1 107 38 232 103 346 l18 32 25 -24 c14 -13 34 -34 44 -47 10 -13 35 -34
54 -47 19 -13 42 -33 52 -45 13 -16 19 -18 30 -8 8 6 18 9 21 5 9 -9 132 -5
184 5 33 7 40 6 36 -5 -21 -54 137 82 220 191 15 20 35 36 44 36 17 0 138 97
147 118 3 7 -14 1 -38 -13 -23 -14 -53 -25 -66 -25 -19 0 -22 -4 -17 -25 3
-20 1 -25 -12 -23 -9 2 -23 -4 -32 -12 -41 -37 -89 -76 -113 -93 -14 -10 -26
-25 -26 -34 0 -8 -6 -13 -13 -10 -8 3 -20 1 -28 -5 -11 -8 -11 -9 3 -4 10 3
20 1 23 -5 4 -5 -2 -12 -12 -15 -10 -3 -31 -11 -48 -19 -16 -8 -49 -16 -72
-19 -24 -3 -62 -9 -84 -12 -39 -6 -79 2 -153 29 -35 13 -164 115 -200 158 -15
18 -26 43 -26 60 0 17 -7 44 -16 60 -19 38 -26 114 -27 289 -1 115 2 143 20
190 11 30 26 77 32 104 9 38 23 60 57 93 25 23 43 47 39 53 -4 6 -2 16 3 23 5
7 13 30 16 53 8 46 30 84 67 112 48 39 187 5 208 -51 5 -12 18 -31 30 -41 14
-13 21 -31 21 -56 0 -21 6 -43 14 -49 11 -9 13 -6 9 16 -3 24 -1 23 11 -8 38
-97 125 -217 148 -203 5 3 15 1 23 -6 7 -6 29 -10 47 -7 l33 3 -30 8 c-51 14
-185 193 -172 229 3 6 14 -8 26 -33 14 -30 21 -38 21 -24 0 12 -11 37 -24 57
-13 19 -27 44 -30 55 -6 18 -56 60 -56 48 0 -3 11 -26 25 -52 26 -49 31 -74
16 -74 -5 0 -14 19 -20 43 -12 47 -13 49 -61 108 -62 75 -89 101 -101 93 -8
-4 -9 -3 -5 4 15 24 43 10 111 -52 39 -35 72 -60 75 -56 8 12 34 -10 65 -55
19 -27 26 -33 22 -17 -3 12 -3 22 -1 22 8 0 61 -125 69 -161 10 -45 47 -102
84 -129 20 -13 31 -30 31 -45 0 -15 16 -37 45 -63 l46 -40 6 -84 c4 -66 2 -91
-12 -123 -21 -49 -65 -175 -65 -187 0 -4 5 -8 10 -8 6 0 10 8 10 17 0 31 43
124 56 119 6 -2 26 11 44 29 24 24 30 38 25 54 -3 12 -13 21 -21 21 -25 0 -15
17 22 39 44 26 44 26 44 -6 0 -60 -20 -100 -67 -139 -52 -43 -42 -60 11 -19
44 34 76 99 76 156 0 33 5 47 20 57 11 6 29 31 41 54 20 39 22 41 35 23 8 -10
14 -22 14 -27 0 -4 5 -8 10 -8 11 0 3 48 -12 66 -5 7 -2 52 7 110 12 72 15
135 11 229 -3 71 -6 145 -6 163 1 19 -10 52 -25 75 -29 49 -101 130 -92 105
18 -48 16 -50 -13 -15 -18 20 -40 37 -49 37 -10 0 -26 9 -35 19 -18 20 -151
50 -163 37 -4 -3 -1 -6 6 -6 27 0 183 -81 218 -112 64 -60 81 -80 98 -122 9
-23 23 -56 31 -74 8 -18 14 -40 14 -49 0 -14 -2 -14 -15 3 -9 12 -14 14 -15 6
0 -18 -20 -4 -20 14 0 8 5 12 10 9 16 -10 11 23 -9 64 -28 54 -111 131 -180
166 -106 54 -161 90 -157 101 3 7 -3 10 -13 7 -24 -6 -134 26 -144 43 -8 13
-69 34 -97 33 -8 0 -1 -6 15 -14 24 -11 26 -14 10 -15 -20 -1 8 -11 130 -45
60 -17 151 -63 142 -72 -3 -2 -22 4 -44 15 -21 11 -65 27 -98 37 -33 9 -80 23
-105 30 -67 20 -130 28 -130 17 0 -6 6 -13 13 -16 6 -4 1 -4 -12 -2 -15 3 -36
-3 -53 -15 -16 -12 -34 -22 -41 -23 -7 -1 -18 -5 -24 -9 -9 -6 -13 0 -13 22 0
30 2 31 43 32 l42 2 -40 6 c-70 11 -11 28 65 20 8 -1 33 -1 55 0 l40 3 -37 12
c-20 6 -40 14 -44 19 -13 13 -88 7 -109 -9z m251 -158 c45 -15 134 -73 134
-86 0 -5 9 -12 20 -15 11 -4 18 -10 15 -15 -3 -5 0 -12 6 -16 8 -4 9 -3 5 4
-20 32 15 4 80 -65 78 -82 92 -113 21 -47 -29 27 -34 30 -17 9 14 -16 33 -36
43 -43 18 -14 24 -36 8 -30 -5 2 -38 30 -73 63 -163 152 -252 210 -339 220
-81 9 -100 15 -94 25 9 15 147 12 191 -4z m125 -41 c79 -41 249 -161 249 -176
0 -5 -24 9 -52 31 -29 22 -56 40 -59 40 -3 0 21 -28 54 -62 66 -71 93 -113 76
-123 -6 -4 -11 -5 -13 -4 -1 2 -15 24 -30 49 -48 81 -124 163 -197 212 -72 49
-82 60 -28 33z m455 -120 c7 -27 6 -29 -9 -16 -10 7 -17 25 -17 39 0 33 16 18
26 -23z m-117 -180 c21 -44 56 -102 79 -128 41 -48 51 -67 33 -67 -11 0 -76
78 -83 100 -4 11 -7 10 -17 -8 -10 -18 -9 -26 4 -44 8 -13 15 -31 15 -42 0
-11 7 -27 15 -36 23 -25 29 -118 9 -148 -22 -34 -27 -22 -8 23 14 35 14 37 -1
32 -19 -8 -23 2 -29 73 -2 30 -11 72 -20 92 -19 44 -20 51 -6 43 6 -3 10 3 10
15 0 24 -29 120 -41 135 -4 6 -13 24 -19 39 -10 26 -9 28 6 15 9 -7 33 -49 53
-94z m-1029 60 c-14 -16 -50 -21 -50 -6 0 8 15 14 54 20 5 0 3 -6 -4 -14z
m624 -209 c22 -27 30 -43 19 -36 -20 13 -63 70 -63 85 0 4 1 6 3 4 1 -2 20
-26 41 -53z m495 -68 c13 -21 19 -38 15 -38 -15 0 -44 33 -44 50 0 10 -7 23
-15 30 -8 7 -15 17 -15 23 0 16 32 -20 59 -65z m-911 -1664 c2 -11 -6 -28 -17
-38 -36 -33 -84 17 -49 52 20 20 62 11 66 -14z"/>
<path d="M1433 2178 c-12 -6 -24 -21 -27 -34 -5 -18 -13 -24 -35 -24 -28 0
-61 -26 -61 -49 0 -9 5 -7 16 3 8 9 28 16 44 16 16 0 35 7 44 15 8 8 23 15 33
15 26 0 48 16 34 24 -6 4 -11 16 -11 27 0 21 -5 22 -37 7z"/>
<path d="M1323 2028 c-13 -6 -23 -15 -23 -20 0 -4 10 -9 23 -9 26 -2 57 -5 75
-7 6 -1 12 -8 12 -16 0 -13 48 -26 102 -26 31 0 56 -33 40 -53 -10 -13 -10
-76 0 -93 4 -6 -3 -20 -15 -32 -167 -166 -217 -227 -217 -264 0 -10 8 -33 17
-51 13 -24 18 -28 21 -15 3 16 5 16 27 2 13 -9 22 -21 19 -28 -8 -22 63 -76
99 -75 31 0 32 0 7 10 -26 11 -80 58 -80 70 0 4 29 -5 65 -22 48 -22 80 -29
125 -29 33 0 60 4 60 10 0 6 -18 10 -41 10 -51 0 -125 18 -167 42 -18 10 -39
18 -47 18 -7 0 -17 9 -20 20 -3 11 -17 23 -31 26 -31 8 -30 15 4 38 20 13 27
25 25 41 -3 12 2 27 11 34 14 12 20 11 36 -4 11 -10 19 -25 18 -33 -3 -18 49
-36 55 -19 2 6 11 8 22 3 17 -6 17 -9 5 -17 -10 -6 13 -8 70 -3 47 3 89 10 94
14 4 5 -4 16 -18 26 -24 15 -32 15 -67 4 -37 -12 -41 -12 -65 11 -17 16 -37
24 -62 24 -31 0 -38 4 -40 22 -2 14 5 29 19 40 12 10 32 28 44 41 12 12 27 22
32 22 27 0 42 80 33 178 -4 39 -73 112 -106 112 -12 0 -48 2 -80 5 -35 3 -68
0 -81 -7z"/>
<path d="M1780 1926 c-43 -11 -44 -12 -45 -53 -1 -35 2 -43 17 -43 13 0 18 8
18 25 0 30 24 43 45 25 8 -6 22 -9 33 -6 10 3 40 2 68 -3 55 -11 62 -8 44 14
-31 38 -117 57 -180 41z"/>
<path d="M1221 1907 c-20 -20 -12 -30 19 -24 24 5 36 1 59 -22 34 -33 122 -58
165 -47 44 11 29 26 -26 26 -29 1 -66 7 -83 15 -29 14 -27 14 42 12 40 -1 73
-5 73 -8 0 -4 11 -9 25 -11 40 -8 30 19 -16 43 -33 16 -65 22 -144 24 -67 2
-106 0 -114 -8z"/>
<path d="M1772 1811 c-8 -5 13 -14 60 -25 153 -37 214 -29 96 12 -64 23 -132
28 -156 13z"/>
<path d="M1231 1774 c-1 -21 21 -39 33 -27 11 11 6 23 -8 23 -8 0 -17 6 -19
13 -3 6 -6 2 -6 -9z"/>
<path d="M1750 1782 c0 -16 101 -62 137 -62 52 0 39 13 -40 38 -39 13 -78 25
-84 28 -7 3 -13 1 -13 -4z"/>
<path d="M1304 1664 c-4 -10 -9 -22 -11 -26 -2 -5 2 -8 10 -8 19 0 31 30 18
43 -7 7 -13 4 -17 -9z"/>
<path d="M1732 1623 c7 -16 20 -39 30 -52 19 -25 26 -135 10 -145 -5 -3 -23 4
-41 15 -18 11 -36 17 -42 14 -5 -4 -9 -2 -9 4 0 20 -215 66 -250 53 -21 -8
-21 -8 -3 -25 11 -9 39 -19 63 -22 119 -14 222 -47 214 -69 -5 -13 84 -15 105
-2 18 12 8 132 -15 178 -31 63 -86 107 -62 51z"/>
<path d="M1960 1505 c-21 -23 -24 -23 -51 -10 -42 22 -48 19 -39 -21 5 -19 11
-38 13 -41 8 -7 47 16 47 27 0 6 6 10 13 10 16 0 57 37 57 50 0 17 -16 11 -40
-15z"/>
<path d="M1281 1362 c4 -67 59 -110 67 -53 3 16 -8 34 -33 59 l-36 36 2 -42z"/>
<path d="M1650 1339 c-13 -6 -35 -7 -48 -4 -20 5 -23 3 -18 -13 6 -17 3 -18
-48 -9 -44 8 -57 7 -77 -6 l-23 -16 37 -16 c53 -22 139 -20 168 5 13 10 18 19
12 20 -23 0 -14 18 12 24 14 4 25 11 25 16 0 12 -7 12 -40 -1z"/>
<path d="M1444 1193 c10 -3 28 -13 39 -23 21 -21 62 -13 62 11 0 10 -16 14
-60 16 -33 1 -51 -1 -41 -4z"/>
<path d="M1970 1106 c0 -3 10 -26 22 -50 19 -41 20 -49 9 -84 -7 -22 -35 -75
-62 -118 -27 -43 -76 -130 -110 -191 -52 -94 -66 -113 -86 -113 -12 0 -23 5
-23 10 0 6 7 10 15 10 8 0 15 7 15 15 0 15 -90 65 -116 65 -17 0 -74 -76 -74
-99 0 -11 -9 -22 -20 -26 -11 -4 -18 -11 -14 -16 3 -6 -3 -20 -14 -32 -35 -39
-73 -168 -74 -255 -2 -188 0 -222 15 -222 8 0 17 7 21 15 3 8 10 15 17 15 6 0
9 -7 5 -15 -4 -10 1 -15 14 -15 25 0 27 35 5 76 -8 16 -15 37 -15 47 0 27 -19
57 -35 57 -21 0 -19 68 3 119 10 22 21 39 23 37 2 -2 5 8 5 22 1 15 7 40 13
56 9 23 16 27 36 22 30 -8 125 27 164 60 16 13 37 24 47 24 33 1 62 33 99 110
20 41 41 82 46 90 5 8 14 26 20 40 6 14 22 40 35 58 14 18 34 52 45 77 11 24
23 47 28 49 8 5 156 -75 212 -115 15 -10 39 -23 55 -29 l29 -10 -24 20 c-13
11 -62 43 -110 72 -124 75 -148 96 -172 155 -18 44 -49 88 -49 69z m-303 -512
c12 -3 26 -19 32 -35 9 -25 7 -31 -16 -49 -14 -11 -34 -20 -44 -20 -10 0 -21
-4 -24 -10 -3 -5 -18 -10 -32 -10 l-25 0 21 36 c12 19 21 39 21 44 0 11 32 50
40 50 3 0 15 -3 27 -6z"/>
<path d="M1176 991 c-8 -12 3 -41 15 -41 12 0 12 37 0 45 -5 3 -12 1 -15 -4z"/>
<path d="M824 906 c-27 -18 -119 -69 -204 -113 -221 -113 -262 -142 -297 -205
-17 -29 -45 -93 -62 -143 -49 -136 -110 -296 -126 -333 -8 -18 -18 -50 -21
-72 -6 -36 -4 -40 15 -40 13 0 21 6 21 18 1 16 1 16 11 0 8 -14 49 -27 49 -15
0 1 -4 17 -9 35 -6 20 -6 30 0 27 12 -8 11 22 -3 60 -9 27 -8 40 8 79 10 25
22 46 27 46 4 0 7 -18 7 -39 0 -34 19 -136 36 -193 4 -13 16 -18 41 -18 26 0
34 4 30 14 -3 7 -9 35 -13 61 -5 35 -4 46 5 41 7 -5 11 4 11 28 0 19 -5 38
-10 41 -6 4 -8 11 -5 16 4 5 1 17 -4 26 -10 16 -10 17 -11 1 0 -9 -4 -19 -9
-22 -4 -3 -6 52 -4 122 5 170 26 264 55 246 5 -4 7 -23 4 -43 -4 -24 -3 -29 3
-16 7 18 9 17 14 -10 15 -79 25 -113 40 -142 9 -18 17 -37 17 -43 0 -7 13 -44
29 -85 16 -40 33 -93 36 -119 7 -44 25 -55 25 -15 0 10 6 19 13 19 10 0 12
-15 9 -60 -4 -50 -2 -60 12 -60 9 0 16 9 17 23 0 12 2 140 5 283 3 222 2 264
-11 274 -21 17 -46 5 -38 -17 4 -10 13 -24 20 -31 16 -17 18 -154 2 -184 -6
-11 -11 -62 -11 -114 0 -52 -3 -94 -7 -94 -4 0 -13 19 -20 43 -7 23 -20 58
-28 77 -47 107 -71 169 -77 205 -4 22 -14 60 -22 86 -23 68 -11 87 87 138 46
23 91 49 99 56 32 28 103 56 134 54 17 -2 38 1 45 6 11 6 13 4 8 -9 -4 -10 -7
-20 -7 -22 0 -3 -5 -2 -12 2 -7 4 -8 3 -4 -5 4 -6 2 -18 -4 -26 -6 -8 -8 -20
-4 -27 4 -7 4 -10 -1 -6 -16 15 -64 -70 -70 -122 -3 -28 -9 -61 -14 -73 -8
-24 -4 -57 8 -57 7 0 45 95 127 320 22 61 46 107 66 128 41 41 33 41 -28 -2z
m-546 -651 c2 -63 -10 -87 -22 -42 -8 30 -8 92 1 100 14 15 18 4 21 -58z m46
-109 c-4 -18 -10 -24 -17 -17 -5 5 -6 22 -3 37 5 18 10 24 17 17 6 -6 7 -22 3
-37z"/>
<path d="M1330 910 c12 -16 28 -30 36 -30 9 0 4 11 -16 30 -17 17 -33 30 -36
30 -3 0 4 -13 16 -30z"/>
<path d="M1549 895 c-3 -2 -19 -5 -37 -7 -34 -2 -51 -25 -27 -34 8 -4 42 2 76
12 45 14 56 20 42 25 -21 9 -48 11 -54 4z"/>
<path d="M1241 876 c-7 -8 -8 -17 -3 -20 5 -3 15 -27 21 -52 15 -60 61 -122
73 -100 5 9 4 23 -1 33 -6 10 -17 41 -26 69 -19 63 -46 92 -64 70z"/>
<path d="M2130 728 c0 -29 -7 -84 -16 -123 -10 -48 -15 -126 -15 -245 0 -180
-6 -241 -25 -247 -7 -2 -14 15 -17 39 -3 24 -12 75 -21 113 -9 40 -16 118 -16
182 0 102 -2 113 -20 123 -22 12 -20 28 -22 -226 0 -79 17 -198 38 -258 19
-53 18 -60 -8 -51 -26 8 -108 22 -189 31 -36 4 -59 3 -63 -4 -8 -13 21 -19
149 -32 50 -5 108 -13 131 -18 39 -8 40 -8 36 14 -2 13 -1 31 2 41 6 15 8 15
16 3 6 -8 10 -27 10 -42 0 -22 5 -28 21 -28 19 0 20 4 12 48 -11 66 -5 400 11
561 7 74 11 142 9 152 -10 37 -23 18 -23 -33z"/>
<path d="M1374 759 c-3 -5 1 -11 8 -13 38 -12 59 -13 65 -4 3 7 1 8 -5 4 -7
-4 -12 -1 -12 6 0 15 -47 21 -56 7z"/>
<path d="M2337 723 c-9 -50 13 -70 39 -35 18 24 17 27 -10 45 -23 15 -24 15
-29 -10z"/>
<path d="M2465 678 c54 -45 84 -76 81 -85 -3 -8 -2 -12 3 -9 5 3 20 -5 35 -19
46 -42 29 -1 -21 52 -42 44 -161 133 -178 133 -3 0 33 -32 80 -72z"/>
<path d="M1200 707 c0 -20 39 -67 56 -67 21 0 17 24 -8 47 -34 30 -48 36 -48
20z"/>
<path d="M440 618 c0 -19 6 -42 13 -52 12 -16 13 -13 12 30 -1 55 -25 76 -25
22z"/>
<path d="M2400 572 c0 -5 -9 -19 -20 -32 -24 -27 -27 -48 -4 -29 21 18 47 69
34 69 -5 0 -10 -4 -10 -8z"/>
<path d="M2245 540 c-4 -16 -10 -30 -15 -30 -5 0 -11 -14 -15 -31 -4 -17 -13
-42 -21 -57 -9 -17 -12 -41 -8 -64 4 -24 0 -53 -10 -80 -9 -24 -15 -59 -12
-78 3 -19 5 -72 5 -117 1 -91 15 -110 25 -35 3 26 22 85 41 132 37 89 44 117
20 86 -7 -10 -18 -15 -24 -12 -5 4 -12 -3 -16 -14 -3 -11 -11 -20 -17 -20 -6
0 -7 7 -3 17 4 10 10 26 12 36 6 20 23 23 23 5 0 -22 20 15 20 37 0 11 7 33
15 49 19 36 9 48 -15 19 -24 -30 -28 -29 -36 12 -4 25 -2 41 9 53 16 18 57
100 57 114 0 22 -29 4 -35 -22z"/>
<path d="M2694 495 c27 -21 53 -20 36 0 -7 8 -22 15 -34 15 -21 -1 -21 -1 -2
-15z"/>
<path d="M2514 477 c-41 -24 -80 -63 -135 -137 -107 -145 -130 -185 -164 -297
l-13 -43 33 0 c32 0 36 5 99 114 62 107 82 163 54 154 -7 -3 -20 -22 -28 -44
-19 -51 -112 -204 -123 -204 -5 0 -6 8 -2 18 4 9 16 42 27 72 43 113 177 292
273 364 24 18 9 20 -21 3z"/>
<path d="M1827 462 c-9 -10 -20 -34 -23 -53 -4 -19 -10 -38 -14 -44 -12 -18
-47 -118 -65 -185 -9 -36 -23 -88 -31 -116 -18 -66 -19 -64 16 -64 26 0 29 3
21 18 -15 27 10 119 94 346 37 97 37 137 2 98z"/>
<path d="M2576 463 c-7 -7 -36 -71 -36 -79 0 -2 6 -4 14 -4 16 0 68 60 63 75
-5 13 -31 18 -41 8z"/>
<path d="M343 403 c-20 -7 -16 -41 5 -39 12 1 18 -7 19 -29 5 -52 24 -168 38
-225 8 -30 17 -68 20 -83 6 -31 30 -32 30 -1 1 10 4 24 8 31 9 15 -6 104 -27
158 -8 22 -15 50 -16 62 0 28 -46 133 -57 132 -4 0 -14 -3 -20 -6z"/>
<path d="M2700 258 c0 -35 6 -70 13 -80 12 -15 14 -14 23 11 6 15 7 36 3 46
-4 11 -8 35 -8 53 -1 21 -6 32 -16 32 -12 0 -15 -13 -15 -62z"/>
<path d="M2470 281 c-17 -32 -12 -46 8 -28 10 10 21 15 24 12 3 -3 8 3 11 15
7 27 -28 28 -43 1z"/>
<path d="M1103 236 c-11 -6 -50 -11 -84 -10 -81 3 -95 -6 -38 -22 65 -20 99
-17 141 12 21 15 38 28 38 30 0 8 -36 2 -57 -10z"/>
<path d="M845 175 c16 -44 16 -63 -3 -118 l-19 -57 23 0 c16 0 22 4 18 14 -3
8 2 20 11 27 36 31 55 54 55 66 0 8 -4 11 -10 8 -6 -4 -10 5 -10 20 0 15 -4
24 -10 20 -6 -3 -13 1 -16 9 -3 9 -11 13 -16 10 -6 -4 -15 0 -20 7 -7 10 -8 9
-3 -6z"/>
<path d="M763 146 c4 -10 1 -13 -7 -10 -9 3 -18 -14 -30 -54 -20 -71 -20 -82
-2 -82 16 0 24 19 31 75 3 20 8 42 12 49 12 18 12 36 1 36 -6 0 -8 -7 -5 -14z"/>
<path d="M2385 105 c-49 -112 -47 -105 -20 -105 20 0 25 5 25 25 0 14 7 37 16
51 13 19 14 30 7 47 -10 21 -11 20 -28 -18z"/>
<path d="M894 36 c-13 -15 -7 -36 12 -36 8 0 14 9 14 19 0 25 -12 32 -26 17z"/>
</g>
</svg>
